<svg xmlns="http://www.w3.org/2000/svg" xmlns:xlink="http://www.w3.org/1999/xlink" width="1366" zoomAndPan="magnify" viewBox="0 0 1024.5 129.75" height="173" preserveAspectRatio="xMidYMid meet" version="1.0"><defs><g/><clipPath id="6c5292a209"><path d="M 0.734375 0 L 1023.265625 0 L 1023.265625 129.5 L 0.734375 129.5 Z M 0.734375 0 " clip-rule="nonzero"/></clipPath></defs><g clip-path="url(#6c5292a209)"><path stroke-linecap="butt" transform="matrix(1.536956, 0, 0, 1.536956, 0.735577, -28.463697)" fill="none" stroke-linejoin="miter" d="M 58.289655 79.000777 L 58.213408 47.089082 L 42.557464 73.378869 L 37.009261 73.378869 L 21.444812 47.777842 L 21.444812 79.000777 L 9.885845 79.000777 L 9.885845 25.81123 L 20.069834 25.81123 L 39.977791 58.871705 L 59.588387 25.81123 L 69.69867 25.81123 L 69.84608 79.000777 Z M 121.653024 58.703963 C 121.653024 58.86408 121.576778 59.92899 121.429368 61.893607 L 90.503794 61.893607 C 91.060393 64.430074 92.376916 66.432815 94.453362 67.906913 C 96.532349 69.378471 99.117105 70.112978 102.210171 70.112978 C 104.337448 70.112978 106.223277 69.797826 107.86766 69.167522 C 109.512042 68.52451 111.047138 67.523139 112.467864 66.160869 L 118.77599 72.990012 C 114.930626 77.404684 109.308719 79.61329 101.91281 79.61329 C 97.299897 79.61329 93.218169 78.716123 89.667624 76.921789 C 86.11708 75.117289 83.379831 72.618946 81.448253 69.42676 C 79.531925 66.237115 78.573761 62.612866 78.573761 58.556553 C 78.573761 54.561237 79.519217 50.954779 81.412672 47.739719 C 83.316292 44.511951 85.926464 42.0009 89.240644 40.206566 C 92.567532 38.414774 96.285819 37.517607 100.390421 37.517607 C 104.385737 37.517607 108.004904 38.37665 111.245379 40.094738 C 114.485855 41.815367 117.027404 44.283211 118.870028 47.498271 C 120.725359 50.713331 121.653024 54.449409 121.653024 58.703963 Z M 100.464126 46.47911 C 97.78025 46.47911 95.523354 47.239033 93.693439 48.75888 C 91.876231 50.281268 90.763032 52.357714 90.353843 54.993301 L 110.482914 54.993301 C 110.088974 52.408545 108.975776 50.342265 107.143318 48.797003 C 105.326111 47.251741 103.099713 46.47911 100.464126 46.47911 Z M 169.599355 58.703963 C 169.599355 58.86408 169.523108 59.92899 169.375698 61.893607 L 138.450125 61.893607 C 139.006724 64.430074 140.323247 66.432815 142.399692 67.906913 C 144.47868 69.378471 147.063436 70.112978 150.156501 70.112978 C 152.283778 70.112978 154.169608 69.797826 155.81399 69.167522 C 157.458373 68.52451 158.993469 67.523139 160.414195 66.160869 L 166.722321 72.990012 C 162.876956 77.404684 157.255049 79.61329 149.85914 79.61329 C 145.246228 79.61329 141.164499 78.716123 137.613955 76.921789 C 134.06341 75.117289 131.32362 72.618946 129.394584 69.42676 C 127.478256 66.237115 126.520091 62.612866 126.520091 58.556553 C 126.520091 54.561237 127.465548 50.954779 129.359002 47.739719 C 131.262623 44.511951 133.872794 42.0009 137.186974 40.206566 C 140.513863 38.414774 144.23215 37.517607 148.336752 37.517607 C 152.332068 37.517607 155.948693 38.37665 159.189168 40.094738 C 162.429644 41.815367 164.973735 44.283211 166.816358 47.498271 C 168.671689 50.713331 169.599355 54.449409 169.599355 58.703963 Z M 148.410457 46.47911 C 145.726581 46.47911 143.469685 47.239033 141.639769 48.75888 C 139.822561 50.281268 138.709363 52.357714 138.300173 54.993301 L 158.429245 54.993301 C 158.032763 52.408545 156.919564 50.342265 155.089649 48.797003 C 153.272441 47.251741 151.046044 46.47911 148.410457 46.47911 Z M 203.872149 77.033618 C 202.708119 77.887578 201.279769 78.53059 199.584555 78.962654 C 197.891883 79.394717 196.105174 79.61329 194.224427 79.61329 C 189.362443 79.61329 185.603492 78.370473 182.945031 75.882296 C 180.284029 73.39666 178.954798 69.749537 178.954798 64.938384 L 178.954798 48.146366 L 172.649214 48.146366 L 172.649214 39.037453 L 178.954798 39.037453 L 178.954798 29.077121 L 190.811126 29.077121 L 190.811126 39.037453 L 200.995115 39.037453 L 200.995115 48.146366 L 190.811126 48.146366 L 190.811126 64.788432 C 190.811126 66.509061 191.250815 67.838292 192.127649 68.778665 C 193.017191 69.716497 194.272717 70.186683 195.894225 70.186683 C 197.774972 70.186683 199.368523 69.680915 200.679963 68.666837 Z M 232.899185 25.81123 L 257.056613 25.81123 C 262.831013 25.81123 267.931903 26.911721 272.361824 29.112703 C 276.801911 31.313684 280.250793 34.419458 282.713555 38.427481 C 285.173775 42.420256 286.403885 47.078916 286.403885 52.395837 C 286.403885 57.7153 285.173775 62.376502 282.713555 66.384525 C 280.250793 70.392549 276.801911 73.495781 272.361824 75.696763 C 267.931903 77.900286 262.831013 79.000777 257.056613 79.000777 L 232.899185 79.000777 Z M 256.46189 68.887952 C 261.778812 68.887952 266.023199 67.411311 269.187429 64.455489 C 272.354199 61.48696 273.937584 57.466228 273.937584 52.395837 C 273.937584 47.338154 272.354199 43.33013 269.187429 40.374308 C 266.023199 37.405778 261.778812 35.921514 256.46189 35.921514 L 245.218076 35.921514 L 245.218076 68.887952 Z M 306.146641 43.51058 C 307.567367 41.530713 309.478612 40.041365 311.877835 39.037453 C 314.289765 38.023375 317.067679 37.517607 320.209034 37.517607 L 320.209034 48.443728 C 318.884887 48.344607 318.000427 48.296318 317.555656 48.296318 C 314.155063 48.296318 311.488978 49.249399 309.559942 51.153019 C 307.641072 53.046474 306.682908 55.895551 306.682908 59.705333 L 306.682908 79.000777 L 294.829121 79.000777 L 294.829121 38.109788 L 306.146641 38.109788 Z M 331.30798 79.61329 C 329.228993 79.61329 327.480407 78.901656 326.057139 77.478389 C 324.633871 76.055121 323.924779 74.281119 323.924779 72.153843 C 323.924779 69.978276 324.633871 68.222066 326.057139 66.885211 C 327.480407 65.538189 329.228993 64.862137 331.30798 64.862137 C 333.384426 64.862137 335.130471 65.538189 336.538489 66.885211 C 337.961757 68.222066 338.673391 69.978276 338.673391 72.153843 C 338.673391 74.281119 337.961757 76.055121 336.538489 77.478389 C 335.130471 78.901656 333.384426 79.61329 331.30798 79.61329 Z M 404.090332 67.609552 L 379.399179 67.609552 L 374.684605 79.000777 L 362.070895 79.000777 L 385.78101 25.81123 L 397.932158 25.81123 L 421.715978 79.000777 L 408.802365 79.000777 Z M 400.214469 58.259192 L 391.791774 37.888673 L 383.348747 58.259192 Z M 464.879112 38.109788 L 446.419838 81.504203 C 444.539092 86.216236 442.221199 89.530416 439.463617 91.449286 C 436.706036 93.378322 433.371523 94.341569 429.46262 94.341569 C 427.335343 94.341569 425.233482 94.013709 423.157036 93.360531 C 421.090756 92.704811 419.395543 91.794937 418.071396 90.633449 L 422.414904 82.190421 C 423.317154 83.006259 424.361731 83.639105 425.548634 84.083876 C 426.748245 84.541355 427.930066 84.770094 429.091554 84.770094 C 430.713063 84.770094 432.029585 84.373612 433.043663 83.583191 C 434.057742 82.802935 434.967616 81.504203 435.770746 79.686995 L 435.938488 79.295597 L 418.221347 38.109788 L 430.466532 38.109788 L 441.931462 65.845717 L 453.487887 38.109788 Z M 484.87094 37.517607 C 491.20194 37.517607 496.063924 39.027287 499.451809 42.044106 C 502.852402 45.048218 504.552699 49.59505 504.552699 55.679519 L 504.552699 79.000777 L 493.458836 79.000777 L 493.458836 73.917678 C 491.219731 77.714753 487.064297 79.61329 480.992536 79.61329 C 477.85118 79.61329 475.124098 79.079565 472.811288 78.017197 C 470.511186 76.952288 468.754975 75.488355 467.542656 73.620317 C 466.330337 71.73957 465.722906 69.60721 465.722906 67.218154 C 465.722906 63.421079 467.153799 60.434758 470.0105 58.259192 C 472.867202 56.081084 477.289498 54.993301 483.274847 54.993301 L 492.698912 54.993301 C 492.698912 52.408545 491.913574 50.41597 490.342896 49.020659 C 488.772218 47.622807 486.416202 46.923881 483.274847 46.923881 C 481.096739 46.923881 478.956754 47.269532 476.854893 47.960833 C 474.753032 48.641969 472.966322 49.564551 471.494765 50.726039 L 467.227504 42.453296 C 469.466609 40.880077 472.14286 39.670299 475.2588 38.816338 C 478.377281 37.94967 481.579633 37.517607 484.87094 37.517607 Z M 483.961065 71.635367 C 485.976514 71.635367 487.770848 71.16518 489.341525 70.224807 C 490.912203 69.284433 492.030485 67.906913 492.698912 66.087164 L 492.698912 61.893607 L 484.555788 61.893607 C 479.693804 61.893607 477.264082 63.489701 477.264082 66.681887 C 477.264082 68.201733 477.856263 69.408969 479.045709 70.298511 C 480.24532 71.190595 481.882078 71.635367 483.961065 71.635367 Z M 540.101351 37.517607 C 545.171742 37.517607 549.266179 39.037453 552.382118 42.082229 C 555.498058 45.111756 557.058569 49.61284 557.058569 55.588023 L 557.058569 79.000777 L 545.202241 79.000777 L 545.202241 57.423022 C 545.202241 54.182546 544.490607 51.765533 543.069881 50.16944 C 541.646613 48.573347 539.593041 47.777842 536.909165 47.777842 C 533.927928 47.777842 531.549037 48.702966 529.767411 50.558297 C 527.998493 52.403462 527.114033 55.140711 527.114033 58.777668 L 527.114033 79.000777 L 515.260247 79.000777 L 515.260247 38.109788 L 526.575225 38.109788 L 526.575225 42.898067 C 528.145903 41.177438 530.095271 39.855832 532.420789 38.928167 C 534.759014 37.987793 537.318355 37.517607 540.101351 37.517607 Z M 592.607221 37.517607 C 597.677613 37.517607 601.772049 39.037453 604.887988 42.082229 C 608.003928 45.111756 609.561898 49.61284 609.561898 55.588023 L 609.561898 79.000777 L 597.708111 79.000777 L 597.708111 57.423022 C 597.708111 54.182546 596.996477 51.765533 595.57321 50.16944 C 594.152483 48.573347 592.098912 47.777842 589.415035 47.777842 C 586.433798 47.777842 584.052366 48.702966 582.273281 50.558297 C 580.504363 52.403462 579.619904 55.140711 579.619904 58.777668 L 579.619904 79.000777 L 567.763575 79.000777 L 567.763575 38.109788 L 579.081095 38.109788 L 579.081095 42.898067 C 580.651773 41.177438 582.601141 39.855832 584.926659 38.928167 C 587.262343 37.987793 589.824225 37.517607 592.607221 37.517607 Z M 636.764102 37.517607 C 643.095101 37.517607 647.957085 39.027287 651.344971 42.044106 C 654.745564 45.048218 656.445861 49.59505 656.445861 55.679519 L 656.445861 79.000777 L 645.351997 79.000777 L 645.351997 73.917678 C 643.112892 77.714753 638.957459 79.61329 632.885697 79.61329 C 629.744342 79.61329 627.017259 79.079565 624.704449 78.017197 C 622.404347 76.952288 620.648137 75.488355 619.435817 73.620317 C 618.223498 71.73957 617.616068 69.60721 617.616068 67.218154 C 617.616068 63.421079 619.044419 60.434758 621.903662 58.259192 C 624.760364 56.081084 629.180118 54.993301 635.168009 54.993301 L 644.592074 54.993301 C 644.592074 52.408545 643.806735 50.41597 642.236058 49.020659 C 640.66538 47.622807 638.309364 46.923881 635.168009 46.923881 C 632.989901 46.923881 630.849916 47.269532 628.748055 47.960833 C 626.646193 48.641969 624.859484 49.564551 623.387927 50.726039 L 619.120665 42.453296 C 621.357229 40.880077 624.036022 39.670299 627.151962 38.816338 C 630.270443 37.94967 633.472795 37.517607 636.764102 37.517607 Z M 635.854227 71.635367 C 637.869676 71.635367 639.66401 71.16518 641.234687 70.224807 C 642.805365 69.284433 643.923646 67.906913 644.592074 66.087164 L 644.592074 61.893607 L 636.446408 61.893607 C 631.586965 61.893607 629.157244 63.489701 629.157244 66.681887 C 629.157244 68.201733 629.749425 69.408969 630.936329 70.298511 C 632.13594 71.190595 633.775239 71.635367 635.854227 71.635367 Z M 635.854227 71.635367 " stroke="#8e1921" stroke-width="12.729782" stroke-opacity="1" stroke-miterlimit="4"/></g><g fill="#ed695a" fill-opacity="1"><g transform="translate(6.234998, 92.955837)"><g><path d="M 84.09375 0 L 83.984375 -49.0625 L 59.921875 -8.640625 L 51.390625 -8.640625 L 27.453125 -48 L 27.453125 0 L 9.6875 0 L 9.6875 -81.765625 L 25.34375 -81.765625 L 55.953125 -30.953125 L 86.078125 -81.765625 L 101.609375 -81.765625 L 101.84375 0 Z M 84.09375 0 "/></g></g></g><g fill="#ed695a" fill-opacity="1"><g transform="translate(117.76448, 92.955837)"><g><path d="M 69.96875 -31.1875 C 69.96875 -30.945312 69.847656 -29.3125 69.609375 -26.28125 L 22.078125 -26.28125 C 22.929688 -22.382812 24.953125 -19.304688 28.140625 -17.046875 C 31.335938 -14.796875 35.3125 -13.671875 40.0625 -13.671875 C 43.332031 -13.671875 46.234375 -14.15625 48.765625 -15.125 C 51.296875 -16.09375 53.648438 -17.628906 55.828125 -19.734375 L 65.515625 -9.234375 C 59.597656 -2.453125 50.957031 0.9375 39.59375 0.9375 C 32.507812 0.9375 26.238281 -0.441406 20.78125 -3.203125 C 15.332031 -5.972656 11.128906 -9.8125 8.171875 -14.71875 C 5.210938 -19.625 3.734375 -25.191406 3.734375 -31.421875 C 3.734375 -37.566406 5.191406 -43.113281 8.109375 -48.0625 C 11.035156 -53.007812 15.046875 -56.863281 20.140625 -59.625 C 25.242188 -62.382812 30.953125 -63.765625 37.265625 -63.765625 C 43.410156 -63.765625 48.972656 -62.441406 53.953125 -59.796875 C 58.941406 -57.148438 62.859375 -53.351562 65.703125 -48.40625 C 68.546875 -43.46875 69.96875 -37.726562 69.96875 -31.1875 Z M 37.375 -49.984375 C 33.25 -49.984375 29.785156 -48.816406 26.984375 -46.484375 C 24.179688 -44.148438 22.46875 -40.957031 21.84375 -36.90625 L 52.796875 -36.90625 C 52.171875 -40.875 50.457031 -44.046875 47.65625 -46.421875 C 44.851562 -48.796875 41.425781 -49.984375 37.375 -49.984375 Z M 37.375 -49.984375 "/></g></g></g><g fill="#ed695a" fill-opacity="1"><g transform="translate(191.455706, 92.955837)"><g><path d="M 69.96875 -31.1875 C 69.96875 -30.945312 69.847656 -29.3125 69.609375 -26.28125 L 22.078125 -26.28125 C 22.929688 -22.382812 24.953125 -19.304688 28.140625 -17.046875 C 31.335938 -14.796875 35.3125 -13.671875 40.0625 -13.671875 C 43.332031 -13.671875 46.234375 -14.15625 48.765625 -15.125 C 51.296875 -16.09375 53.648438 -17.628906 55.828125 -19.734375 L 65.515625 -9.234375 C 59.597656 -2.453125 50.957031 0.9375 39.59375 0.9375 C 32.507812 0.9375 26.238281 -0.441406 20.78125 -3.203125 C 15.332031 -5.972656 11.128906 -9.8125 8.171875 -14.71875 C 5.210938 -19.625 3.734375 -25.191406 3.734375 -31.421875 C 3.734375 -37.566406 5.191406 -43.113281 8.109375 -48.0625 C 11.035156 -53.007812 15.046875 -56.863281 20.140625 -59.625 C 25.242188 -62.382812 30.953125 -63.765625 37.265625 -63.765625 C 43.410156 -63.765625 48.972656 -62.441406 53.953125 -59.796875 C 58.941406 -57.148438 62.859375 -53.351562 65.703125 -48.40625 C 68.546875 -43.46875 69.96875 -37.726562 69.96875 -31.1875 Z M 37.375 -49.984375 C 33.25 -49.984375 29.785156 -48.816406 26.984375 -46.484375 C 24.179688 -44.148438 22.46875 -40.957031 21.84375 -36.90625 L 52.796875 -36.90625 C 52.171875 -40.875 50.457031 -44.046875 47.65625 -46.421875 C 44.851562 -48.796875 41.425781 -49.984375 37.375 -49.984375 Z M 37.375 -49.984375 "/></g></g></g><g fill="#ed695a" fill-opacity="1"><g transform="translate(265.146932, 92.955837)"><g><path d="M 48.9375 -3.03125 C 47.144531 -1.707031 44.941406 -0.710938 42.328125 -0.046875 C 39.722656 0.609375 36.984375 0.9375 34.109375 0.9375 C 26.628906 0.9375 20.84375 -0.96875 16.75 -4.78125 C 12.664062 -8.601562 10.625 -14.210938 10.625 -21.609375 L 10.625 -47.421875 L 0.9375 -47.421875 L 0.9375 -61.4375 L 10.625 -61.4375 L 10.625 -76.734375 L 28.84375 -76.734375 L 28.84375 -61.4375 L 44.5 -61.4375 L 44.5 -47.421875 L 28.84375 -47.421875 L 28.84375 -21.84375 C 28.84375 -19.195312 29.523438 -17.148438 30.890625 -15.703125 C 32.253906 -14.265625 34.179688 -13.546875 36.671875 -13.546875 C 39.554688 -13.546875 42.007812 -14.328125 44.03125 -15.890625 Z M 48.9375 -3.03125 "/></g></g></g><g fill="#ed695a" fill-opacity="1"><g transform="translate(315.948331, 92.955837)"><g/></g></g><g fill="#ed695a" fill-opacity="1"><g transform="translate(348.998423, 92.955837)"><g><path d="M 9.6875 -81.765625 L 46.828125 -81.765625 C 55.710938 -81.765625 63.5625 -80.066406 70.375 -76.671875 C 77.1875 -73.285156 82.476562 -68.515625 86.25 -62.359375 C 90.03125 -56.210938 91.921875 -49.050781 91.921875 -40.875 C 91.921875 -32.695312 90.03125 -25.53125 86.25 -19.375 C 82.476562 -13.226562 77.1875 -8.460938 70.375 -5.078125 C 63.5625 -1.691406 55.710938 0 46.828125 0 L 9.6875 0 Z M 45.90625 -15.53125 C 54.082031 -15.53125 60.601562 -17.804688 65.46875 -22.359375 C 70.332031 -26.921875 72.765625 -33.09375 72.765625 -40.875 C 72.765625 -48.664062 70.332031 -54.835938 65.46875 -59.390625 C 60.601562 -63.941406 54.082031 -66.21875 45.90625 -66.21875 L 28.609375 -66.21875 L 28.609375 -15.53125 Z M 45.90625 -15.53125 "/></g></g></g><g fill="#ed695a" fill-opacity="1"><g transform="translate(445.462706, 92.955837)"><g><path d="M 25.8125 -54.546875 C 27.988281 -57.578125 30.925781 -59.867188 34.625 -61.421875 C 38.320312 -62.984375 42.585938 -63.765625 47.421875 -63.765625 L 47.421875 -46.953125 C 45.398438 -47.109375 44.035156 -47.1875 43.328125 -47.1875 C 38.109375 -47.1875 34.019531 -45.722656 31.0625 -42.796875 C 28.101562 -39.878906 26.625 -35.503906 26.625 -29.671875 L 26.625 0 L 8.40625 0 L 8.40625 -62.84375 L 25.8125 -62.84375 Z M 25.8125 -54.546875 "/></g></g></g><g fill="#ed695a" fill-opacity="1"><g transform="translate(494.629025, 92.955837)"><g><path d="M 15.296875 0.9375 C 12.109375 0.9375 9.421875 -0.148438 7.234375 -2.328125 C 5.054688 -4.515625 3.96875 -7.242188 3.96875 -10.515625 C 3.96875 -13.859375 5.054688 -16.5625 7.234375 -18.625 C 9.421875 -20.6875 12.109375 -21.71875 15.296875 -21.71875 C 18.492188 -21.71875 21.179688 -20.6875 23.359375 -18.625 C 25.535156 -16.5625 26.625 -13.859375 26.625 -10.515625 C 26.625 -7.242188 25.535156 -4.515625 23.359375 -2.328125 C 21.179688 -0.148438 18.492188 0.9375 15.296875 0.9375 Z M 15.296875 0.9375 "/></g></g></g><g fill="#ed695a" fill-opacity="1"><g transform="translate(525.226637, 92.955837)"><g/></g></g><g fill="#ed695a" fill-opacity="1"><g transform="translate(558.276728, 92.955837)"><g><path d="M 63.53125 -17.515625 L 25.578125 -17.515625 L 18.34375 0 L -1.046875 0 L 35.390625 -81.765625 L 54.078125 -81.765625 L 90.640625 0 L 70.78125 0 Z M 57.578125 -31.890625 L 44.609375 -63.1875 L 31.65625 -31.890625 Z M 57.578125 -31.890625 "/></g></g></g><g fill="#ed695a" fill-opacity="1"><g transform="translate(644.463719, 92.955837)"><g><path d="M 70.78125 -62.84375 L 42.390625 3.859375 C 39.515625 11.097656 35.953125 16.195312 31.703125 19.15625 C 27.460938 22.113281 22.347656 23.59375 16.359375 23.59375 C 13.085938 23.59375 9.851562 23.085938 6.65625 22.078125 C 3.46875 21.066406 0.859375 19.664062 -1.171875 17.875 L 5.484375 4.90625 C 6.890625 6.15625 8.503906 7.128906 10.328125 7.828125 C 12.160156 8.523438 13.972656 8.875 15.765625 8.875 C 18.253906 8.875 20.273438 8.269531 21.828125 7.0625 C 23.390625 5.851562 24.796875 3.847656 26.046875 1.046875 L 26.28125 0.46875 L -0.9375 -62.84375 L 17.875 -62.84375 L 35.5 -20.203125 L 53.265625 -62.84375 Z M 70.78125 -62.84375 "/></g></g></g><g fill="#ed695a" fill-opacity="1"><g transform="translate(712.198794, 92.955837)"><g><path d="M 33.75 -63.765625 C 43.488281 -63.765625 50.960938 -61.445312 56.171875 -56.8125 C 61.390625 -52.1875 64 -45.203125 64 -35.859375 L 64 0 L 46.953125 0 L 46.953125 -7.828125 C 43.523438 -1.984375 37.140625 0.9375 27.796875 0.9375 C 22.972656 0.9375 18.785156 0.117188 15.234375 -1.515625 C 11.691406 -3.148438 8.988281 -5.40625 7.125 -8.28125 C 5.257812 -11.164062 4.328125 -14.441406 4.328125 -18.109375 C 4.328125 -23.941406 6.523438 -28.53125 10.921875 -31.875 C 15.316406 -35.226562 22.109375 -36.90625 31.296875 -36.90625 L 45.78125 -36.90625 C 45.78125 -40.875 44.570312 -43.925781 42.15625 -46.0625 C 39.75 -48.207031 36.128906 -49.28125 31.296875 -49.28125 C 27.953125 -49.28125 24.660156 -48.753906 21.421875 -47.703125 C 18.191406 -46.660156 15.453125 -45.242188 13.203125 -43.453125 L 6.65625 -56.171875 C 10.082031 -58.585938 14.1875 -60.457031 18.96875 -61.78125 C 23.757812 -63.101562 28.6875 -63.765625 33.75 -63.765625 Z M 32.359375 -11.328125 C 35.472656 -11.328125 38.234375 -12.046875 40.640625 -13.484375 C 43.054688 -14.929688 44.769531 -17.054688 45.78125 -19.859375 L 45.78125 -26.28125 L 33.28125 -26.28125 C 25.8125 -26.28125 22.078125 -23.828125 22.078125 -18.921875 C 22.078125 -16.585938 22.988281 -14.738281 24.8125 -13.375 C 26.644531 -12.007812 29.160156 -11.328125 32.359375 -11.328125 Z M 32.359375 -11.328125 "/></g></g></g><g fill="#ed695a" fill-opacity="1"><g transform="translate(784.255011, 92.955837)"><g><path d="M 46.609375 -63.765625 C 54.390625 -63.765625 60.671875 -61.425781 65.453125 -56.75 C 70.242188 -52.082031 72.640625 -45.15625 72.640625 -35.96875 L 72.640625 0 L 54.421875 0 L 54.421875 -33.171875 C 54.421875 -38.148438 53.332031 -41.863281 51.15625 -44.3125 C 48.976562 -46.769531 45.828125 -48 41.703125 -48 C 37.109375 -48 33.445312 -46.578125 30.71875 -43.734375 C 27.988281 -40.898438 26.625 -36.675781 26.625 -31.0625 L 26.625 0 L 8.40625 0 L 8.40625 -62.84375 L 25.8125 -62.84375 L 25.8125 -55.484375 C 28.226562 -58.128906 31.222656 -60.171875 34.796875 -61.609375 C 38.378906 -63.046875 42.316406 -63.765625 46.609375 -63.765625 Z M 46.609375 -63.765625 "/></g></g></g><g fill="#ed695a" fill-opacity="1"><g transform="translate(864.953322, 92.955837)"><g><path d="M 46.609375 -63.765625 C 54.390625 -63.765625 60.671875 -61.425781 65.453125 -56.75 C 70.242188 -52.082031 72.640625 -45.15625 72.640625 -35.96875 L 72.640625 0 L 54.421875 0 L 54.421875 -33.171875 C 54.421875 -38.148438 53.332031 -41.863281 51.15625 -44.3125 C 48.976562 -46.769531 45.828125 -48 41.703125 -48 C 37.109375 -48 33.445312 -46.578125 30.71875 -43.734375 C 27.988281 -40.898438 26.625 -36.675781 26.625 -31.0625 L 26.625 0 L 8.40625 0 L 8.40625 -62.84375 L 25.8125 -62.84375 L 25.8125 -55.484375 C 28.226562 -58.128906 31.222656 -60.171875 34.796875 -61.609375 C 38.378906 -63.046875 42.316406 -63.765625 46.609375 -63.765625 Z M 46.609375 -63.765625 "/></g></g></g><g fill="#ed695a" fill-opacity="1"><g transform="translate(945.651586, 92.955837)"><g><path d="M 33.75 -63.765625 C 43.488281 -63.765625 50.960938 -61.445312 56.171875 -56.8125 C 61.390625 -52.1875 64 -45.203125 64 -35.859375 L 64 0 L 46.953125 0 L 46.953125 -7.828125 C 43.523438 -1.984375 37.140625 0.9375 27.796875 0.9375 C 22.972656 0.9375 18.785156 0.117188 15.234375 -1.515625 C 11.691406 -3.148438 8.988281 -5.40625 7.125 -8.28125 C 5.257812 -11.164062 4.328125 -14.441406 4.328125 -18.109375 C 4.328125 -23.941406 6.523438 -28.53125 10.921875 -31.875 C 15.316406 -35.226562 22.109375 -36.90625 31.296875 -36.90625 L 45.78125 -36.90625 C 45.78125 -40.875 44.570312 -43.925781 42.15625 -46.0625 C 39.75 -48.207031 36.128906 -49.28125 31.296875 -49.28125 C 27.953125 -49.28125 24.660156 -48.753906 21.421875 -47.703125 C 18.191406 -46.660156 15.453125 -45.242188 13.203125 -43.453125 L 6.65625 -56.171875 C 10.082031 -58.585938 14.1875 -60.457031 18.96875 -61.78125 C 23.757812 -63.101562 28.6875 -63.765625 33.75 -63.765625 Z M 32.359375 -11.328125 C 35.472656 -11.328125 38.234375 -12.046875 40.640625 -13.484375 C 43.054688 -14.929688 44.769531 -17.054688 45.78125 -19.859375 L 45.78125 -26.28125 L 33.28125 -26.28125 C 25.8125 -26.28125 22.078125 -23.828125 22.078125 -18.921875 C 22.078125 -16.585938 22.988281 -14.738281 24.8125 -13.375 C 26.644531 -12.007812 29.160156 -11.328125 32.359375 -11.328125 Z M 32.359375 -11.328125 "/></g></g></g></svg>